<svg xmlns="http://www.w3.org/2000/svg" height="512px" viewBox="0 -7 395.94667 395" width="512px" class=""><g><g><path d="m369.746094 20.472656c-12.878906-12.894531-30.027344-20-48.265625-20s-35.386719 7.105469-48.265625 20l-241.363282 241.359375c-.058593.0625-.078124.148438-.136718.207031-1.101563 1.144532-1.964844 2.472657-2.617188 3.941407-.167968.378906-.261718.757812-.394531 1.148437-.191406.5625-.464844 1.085938-.582031 1.679688l-19.304688 96.53125c-.894531 4.480468.503906 9.105468 3.734375 12.335937 2.585938 2.585938 6.066407 4 9.652344 4 .890625 0 1.785156-.09375 2.679687-.269531l96.53125-19.304688c.59375-.117187 1.117188-.390624 1.679688-.582031.390625-.132812.769531-.230469 1.148438-.398437 1.464843-.648438 2.796874-1.511719 3.9375-2.613282.0625-.058593.144531-.078124.210937-.136718l241.359375-241.363282c12.894531-12.878906 20-30.023437 20-48.265624 0-18.238282-7.109375-35.386719-20.003906-48.269532zm-251.011719 308.933594-57.921875-57.917969 202.746094-202.75 57.921875 57.921875zm-79.132813 21.214844 10.292969-51.441406 41.144531 41.144531zm310.839844-252.921875-9.652344 9.652343-57.921874-57.917968 9.652343-9.652344c15.464844-15.46875 42.453125-15.46875 57.921875 0 7.730469 7.730469 12 18.011719 12 28.957031 0 10.949219-4.269531 21.230469-12 28.960938zm0 0" data-original="#000000" class=""/><path d="m118.734375 285.140625c-3.496094 0-6.988281-1.332031-9.65625-4-5.332031-5.335937-5.332031-13.976563 0-19.308594l144.828125-144.824219c5.332031-5.332031 13.972656-5.332031 19.304688 0 5.332031 5.332032 5.335937 13.972657 0 19.304688l-144.824219 144.828125c-2.667969 2.667969-6.160157 4-9.652344 4zm0 0" data-original="#000000" class=""/><path d="m68.265625 42.0625h-54.613281c-7.546875 0-13.652344-6.109375-13.652344-13.65625s6.105469-13.652344 13.652344-13.652344h54.613281c7.546875 0 13.65625 6.105469 13.65625 13.652344s-6.109375 13.65625-13.65625 13.65625zm0 0" data-original="#000000" class=""/><path d="m40.960938 151.289062h-27.308594c-7.546875 0-13.652344-6.109374-13.652344-13.65625 0-7.546874 6.105469-13.652343 13.652344-13.652343h27.308594c7.546874 0 13.652343 6.105469 13.652343 13.652343 0 7.546876-6.105469 13.65625-13.652343 13.65625zm0 0" data-original="#000000" class=""/><path d="m109.226562 151.289062h-27.304687c-7.546875 0-13.65625-6.109374-13.65625-13.65625 0-7.546874 6.109375-13.652343 13.65625-13.652343h27.304687c7.546876 0 13.652344 6.105469 13.652344 13.652343 0 7.546876-6.105468 13.65625-13.652344 13.65625zm0 0" data-original="#000000" class=""/><path d="m163.839844 96.675781h-150.1875c-7.546875 0-13.652344-6.109375-13.652344-13.65625s6.105469-13.652343 13.652344-13.652343h150.1875c7.546875 0 13.652344 6.105468 13.652344 13.652343s-6.105469 13.65625-13.652344 13.65625zm0 0" fill="#11ccd1" data-original="#77A354" class="active-path" style="fill:#77A354" data-old_color="#11ccd1"/><path d="m382.292969 260.515625h-95.574219c-7.546875 0-13.652344-6.105469-13.652344-13.652344s6.105469-13.65625 13.652344-13.65625h95.574219c7.546875 0 13.652343 6.109375 13.652343 13.65625s-6.105468 13.652344-13.652343 13.652344zm0 0" fill="#11ccd1" data-original="#77A354" class="active-path" style="fill:#77A354" data-old_color="#11ccd1"/><path d="m382.292969 369.742188h-204.800781c-7.546876 0-13.652344-6.105469-13.652344-13.652344s6.105468-13.65625 13.652344-13.65625h204.800781c7.546875 0 13.652343 6.109375 13.652343 13.65625s-6.105468 13.652344-13.652343 13.652344zm0 0" data-original="#000000" class=""/><path d="m218.453125 42.0625h-109.226563c-7.546874 0-13.652343-6.109375-13.652343-13.65625s6.105469-13.652344 13.652343-13.652344h109.226563c7.546875 0 13.652344 6.105469 13.652344 13.652344s-6.105469 13.65625-13.652344 13.65625zm0 0" data-original="#000000" class=""/><path d="m286.71875 315.128906h-54.613281c-7.546875 0-13.652344-6.105468-13.652344-13.652344 0-7.546874 6.105469-13.65625 13.652344-13.65625h54.613281c7.546875 0 13.65625 6.109376 13.65625 13.65625 0 7.546876-6.109375 13.652344-13.65625 13.652344zm0 0" fill="#11ccd1" data-original="#77A354" class="active-path" style="fill:#77A354" data-old_color="#11ccd1"/><path d="m382.292969 315.128906h-54.613281c-7.546876 0-13.652344-6.105468-13.652344-13.652344 0-7.546874 6.105468-13.65625 13.652344-13.65625h54.613281c7.546875 0 13.652343 6.109376 13.652343 13.65625 0 7.546876-6.105468 13.652344-13.652343 13.652344zm0 0" fill="#11ccd1" data-original="#77A354" class="active-path" style="fill:#77A354" data-old_color="#11ccd1"/><path d="m54.613281 205.902344h-40.960937c-7.546875 0-13.652344-6.105469-13.652344-13.652344s6.105469-13.65625 13.652344-13.65625h40.960937c7.546875 0 13.652344 6.109375 13.652344 13.65625s-6.105469 13.652344-13.652344 13.652344zm0 0" data-original="#000000" class=""/><path d="m382.292969 205.902344h-40.960938c-7.546875 0-13.652343-6.105469-13.652343-13.652344s6.105468-13.65625 13.652343-13.65625h40.960938c7.546875 0 13.652343 6.109375 13.652343 13.65625s-6.105468 13.652344-13.652343 13.652344zm0 0" data-original="#000000" class=""/></g></g> </svg>
